<?xml version="1.0" encoding="utf-8"?>
<!-- Generator: Adobe Illustrator 26.0.1, SVG Export Plug-In . SVG Version: 6.00 Build 0)  -->
<svg version="1.1" id="Capa_1" xmlns="http://www.w3.org/2000/svg" xmlns:xlink="http://www.w3.org/1999/xlink" x="0px" y="0px"
	 viewBox="0 0 200 200" style="enable-background:new 0 0 200 200;" xml:space="preserve">
<style type="text/css">
	.st0{fill:#C23700;}
</style>
<g>
	<path class="st0" d="M9.4,38.1h19.2c3.8,0,6.8,1.4,9.2,4.2c2.3,2.8,4.2,6.9,5.8,12.1c1.5,5.3,2.6,11.4,3.3,18.4
		c0.7,7,1,14.4,1,22.2c0,12.3-0.5,21.8-1.5,28.5c-1,6.8-2.4,12.4-4.2,17c-1.8,4.6-3.7,7.6-5.8,9.1c-2.8,2.1-5.4,3.1-7.7,3.1H9.4
		V38.1z M22.4,64.1v62.7h3.2c2.7,0,4.6-0.8,5.8-2.5c1.1-1.6,2-4.5,2.7-8.6c0.6-4.1,1-10.7,1-19.9c0-12.2-0.7-20.5-2.2-25
		c-1.4-4.5-3.8-6.7-7.2-6.7H22.4z"/>
	<path class="st0" d="M52.9,120.9h12.4v31.9H52.9V120.9z"/>
	<path class="st0" d="M73.3,152.8V38.1h21.5c4,0,7,0.9,9.1,2.8c2.1,1.9,3.8,5.4,5.1,10.5c1.3,5.1,1.9,11.3,1.9,18.6
		c0,6.4-0.5,11.9-1.5,16.5c-1,4.6-2.3,8.4-4.1,11.2c-1.1,1.8-2.6,3.3-4.5,4.5c1.5,1.4,2.7,2.8,3.4,4.2c0.5,0.9,1.2,3,2.1,6
		c0.9,3.1,1.5,5.5,1.8,7.1l6.3,33.3H99.8l-6.9-35.1c-0.9-4.5-1.7-7.5-2.3-8.8c-0.9-1.8-2-2.7-3.2-2.7h-1.1v46.6H73.3z M86.2,84.6
		h5.4c0.6,0,1.7-0.5,3.4-1.6c0.9-0.5,1.6-1.7,2.1-3.6c0.5-1.9,0.8-4.1,0.8-6.7c0-3.7-0.4-6.5-1.3-8.5c-0.9-2-2.5-3-4.8-3h-5.7V84.6z
		"/>
	<path class="st0" d="M117.7,120.9h12.4v31.9h-12.4V120.9z"/>
	<path class="st0" d="M133.8,38.1h13.5l9.4,82.6l9.3-82.6h13.1l-15.5,114.8h-14L133.8,38.1z"/>
	<path class="st0" d="M175.1,120.9h12.4v31.9h-12.4V120.9z"/>
</g>
<g>
</g>
<g>
</g>
<g>
</g>
<g>
</g>
<g>
</g>
<g>
</g>
<g>
</g>
<g>
</g>
<g>
</g>
<g>
</g>
<g>
</g>
</svg>
