<?xml version="1.0" encoding="utf-8"?>
<!-- Generator: Adobe Illustrator 25.2.0, SVG Export Plug-In . SVG Version: 6.00 Build 0)  -->
<svg version="1.1" id="Capa_1" xmlns="http://www.w3.org/2000/svg" xmlns:xlink="http://www.w3.org/1999/xlink" x="0px" y="0px"
	 viewBox="0 0 841.89 595.28" style="enable-background:new 0 0 841.89 595.28;" xml:space="preserve">
<style type="text/css">
	.st0{fill:#36A9E1;}
</style>
<g>
	<path class="st0" d="M491.83,484.58v-65.34h-53.65v65.34h-19.1V340.73h19.1v62.57h53.65v-62.57h19.1v143.85H491.83z"/>
	<path class="st0" d="M609.76,484.58l-54.67-103.21v103.21h-19.1V340.73h18.09l54.67,102.75V340.73h19.1v143.85H609.76z"/>
	<path class="st0" d="M652.9,484.58V340.73h41.05c29.26,0,43.49,14.78,43.49,39.48c0,14.32-5.68,25.86-18.28,31.17
		c14.22,3.92,24.18,17.54,24.18,33.71c0,27.24-18.5,39.48-47.35,39.48H652.9z M672,357.81V404h24.59c13.62,0,21.34-7.16,21.34-23.56
		c0-16.16-7.31-22.63-24.18-22.63H672z M672,420.86v46.64h23.78c16.87,0,28.25-4.38,28.25-22.63c0-17.08-11.99-24.01-27.44-24.01
		H672z"/>
</g>
</svg>
